PathFileType	4	(X/Y/Z)	C:/Users/beibeiliu/ov580/test_trc\sequence.19_training_dense_left.trc
DataRate	CameraRate	NumFrames	NumMarkers	Units	OrigDataRate	OrigDataStartFrame	OrigNumFrames
120	120	8	19	mm	120	1	344
Frame#	Time	ThumbCMC			ThumbMCP			ThumbIP			ThumbTip			IndexMCP			IndexPIP			IndexTip			MiddleMCP			MiddlePIP			MiddleTip			RingMCP			RingPIP			RingTip			PinkyMCP			PinkyPIP			PinkyTip			BackHand1			BackHand2			BackHand3	
		X0	Y0	Z0	X1	Y1	Z1	X2	Y2	Z2	X3	Y3	Z3	X4	Y4	Z4	X5	Y5	Z5	X6	Y6	Z6	X7	Y7	Z7	X8	Y8	Z8	X9	Y9	Z9	X10	Y10	Z10	X11	Y11	Z11	X12	Y12	Z12	X13	Y13	Z13	X14	Y14	Z14	X15	Y15	Z15	X16	Y16	Z16	X17	Y17	Z17	X18	Y18	Z18	
0	0	-192.418	5.30779	30.87	-177.89	-5.94639	12.9288	-161.721	-9.33952	-4.387	-148.848	-13.3758	-21.4853	-195.862	10.7987	-37.8665	-188.92	5.98833	-58.7354	-182.364	0.592742	-85.4398	-215.492	11.7168	-47.1049	-214.813	8.67706	-70.8307	-215.675	4.03005	-95.9287	-233.611	10.1428	-43.7851	-234.267	8.58957	-61.414	-235.212	6.64219	-82.2832	-258.061	7.01435	-30.6802	-260.231	5.21326	-44.8	-261.245	8.02523	-65.3524	-236.986	22.9362	-1.13556	-239.918	27.6809	29.2301	-213.035	26.1041	14.4489	
1	0.00833333	-194.878	5.37447	27.9001	-177.827	-4.33183	11.2207	-167.843	-8.37094	-7.07308	-151.185	-13.0173	-22.611	-197.035	11.2551	-40.0615	-190.951	6.71863	-63.796	-185.437	0.499798	-87.1601	-215.461	11.7827	-50.2642	-214.907	9.24749	-68.8481	-216.73	4.67215	-96.5289	-238.914	11.5085	-42.8608	-233.972	8.64099	-62.5034	-234.901	8.07963	-88.0007	-256.103	7.18509	-27.5904	-262.385	6.52301	-50.3418	-264.834	10.3089	-63.9877	-240.618	22.5846	1.63359	-239.457	29.0232	25.7918	-212.963	25.4616	12.1891	
2	0.0166667	-196.08	5.36185	29.6486	-180.943	-4.05891	13.1756	-164.484	-7.79862	-9.42419	-155.213	-11.9398	-19.7615	-192.112	10.9696	-42.7227	-192.001	7.38001	-61.6023	-182.611	2.27874	-82.6374	-218.597	13.2218	-47.3784	-215.688	9.24622	-70.0577	-214.229	5.76749	-94.5536	-234.408	11.9401	-40.6048	-234.498	8.9894	-67.1523	-236.184	8.27318	-87.2306	-258.165	9.16564	-29.0345	-262.825	6.99252	-48.2335	-264.025	8.92259	-65.0133	-241.704	24.0297	0.771821	-239.586	28.0057	25.5142	-215.519	26.1429	14.7133	
3	0.025	-192.714	6.77613	25.5215	-181.368	-3.15308	9.98327	-167.044	-7.21143	-7.95419	-154.952	-11.6967	-18.0087	-195.358	11.8648	-42.4703	-187.703	8.1071	-64.1693	-188.49	3.44006	-82.3084	-216.822	13.6495	-45.7998	-216.334	9.73388	-72.1074	-217.447	6.41309	-95.4027	-234.262	12.5535	-43.2844	-235.868	9.78695	-65.8104	-234.55	8.91623	-82.0913	-253.952	8.74986	-27.9427	-258.675	8.85514	-48.2876	-264.571	12.0516	-64.4693	-240.117	23.2487	-1.88198	-243.729	29.0964	23.9042	-214.129	27.0607	11.9295	
4	0.0333333	-197.758	6.84923	28.5938	-179.878	-2.26796	8.50375	-164.899	-6.72834	-6.00929	-152.124	-10.7755	-19.1113	-193.358	13.3659	-38.7898	-190.287	9.87323	-59.5064	-184.095	5.07	-81.3657	-214.551	14.8591	-51.2413	-213.959	9.52797	-74.0118	-215.516	7.80283	-93.7247	-239.518	12.4174	-42.6117	-235.019	10.8778	-67.1037	-236.972	8.9532	-86.8308	-259.873	9.13848	-29.8685	-257.76	8.55735	-47.0631	-265.096	12.2301	-64.907	-241.22	25.3244	-1.29357	-238.25	29.7821	23.2484	-215.325	26.7047	11.9032	
5	0.0416667	-196.843	7.8188	24.822	-181.155	-1.19785	9.32915	-166.855	-4.86756	-10.2185	-151.906	-9.74224	-20.2503	-193.136	13.4914	-37.4061	-192.987	9.12798	-63.7756	-185.261	4.76267	-81.3796	-219.212	14.4482	-50.1881	-215.418	11.1922	-71.1789	-219.173	7.82942	-94.8645	-240.49	13.0794	-42.4278	-238.754	11.0569	-66.7948	-239.225	9.31368	-83.7282	-257.801	10.5796	-29.3216	-258.246	8.93666	-44.941	-265.63	10.0054	-64.3534	-238.574	25.3874	2.82203	-241.134	29.4863	25.3356	-212.476	27.017	13.8421	
6	0.05	-194.683	8.12744	25.7698	-178.838	-1.20014	9.18682	-169.382	-6.50578	-6.33563	-155.348	-9.08026	-20.163	-196.847	13.3795	-42.8216	-190.426	9.09818	-59.0476	-187.868	4.71921	-81.8131	-220.444	14.5157	-50.5587	-215.754	11.3079	-68.5978	-217.261	8.74829	-96.3767	-236.341	13.4285	-39.6303	-238.114	11.2716	-63.5222	-235.772	10.8159	-87.083	-260.516	10.3896	-29.0701	-262.015	9.17842	-49.9159	-265.836	10.957	-65.85	-238.019	23.3881	3.69317	-242.982	29.8128	27.2326	-216.031	28.9297	14.9908	
7	0.0583333	-195.544	8.13755	30.1908	-180.396	-1.94334	11.7912	-164.85	-4.62485	-8.93036	-152.155	-8.96876	-19.0043	-196.175	14.1746	-41.6803	-189.559	8.56367	-63.8563	-188.986	5.59284	-82.3415	-218.973	14.3767	-50.2766	-217.128	10.8016	-69.6646	-214.071	7.22857	-98.7318	-236.532	14.0445	-40.9663	-241.022	11.4567	-64.1215	-239.182	10.1816	-83.5895	-260.776	11.7764	-31.362	-260.961	9.57621	-46.319	-266.119	10.7859	-68.6758	-243.608	24.3788	3.18204	-242.705	29.748	25.4325	-213.067	29.6129	14.198	
